# xmcd CD database file
#
# Track frame offsets:
#	150
#	8861
#	29341
#	45694
#	55786
#	81964
#	90054
#	110325
#	127966
#	151335
#	165671
#	173976
#	192832
#	203068
#	216176
#	221603
#
# Disc length: 3181 seconds
#
# Revision: 1
# Processed by: cddbd v1.5.2PL0 Copyright (c) Steve Scherf et al.
# Submitted via: CDex 1.60beta1-cs1
#
DISCID=cc0c6b10
DTITLE=Dan Cosgrove - eclectic
DYEAR=2005
DGENRE=New Age
TTITLE0=The Pleasure of You
TTITLE1=The Boss
TTITLE2=Elizabethan Waltz
TTITLE3=Dignity Then Greatness
TTITLE4=Trish's Wish
TTITLE5=Midnight
TTITLE6=Shiny Old Cars
TTITLE7=Two Hearts
TTITLE8=No Comprendo
TTITLE9=My Baby Now
TTITLE10=Storm Bird
TTITLE11=Protect You From The Weather
TTITLE12=Sultry Dance
TTITLE13=God's Gift to Women
TTITLE14=A Spring Song
TTITLE15=The Peace Song
EXTD=YEAR: 2005
EXTT0=
EXTT1=
EXTT2=
EXTT3=
EXTT4=
EXTT5=
EXTT6=
EXTT7=
EXTT8=
EXTT9=
EXTT10=
EXTT11=
EXTT12=
EXTT13=
EXTT14=
EXTT15=
PLAYORDER=
